<?xml version="1.0" encoding="UTF-8" standalone="no"?>
<!-- Created with Inkscape (http://www.inkscape.org/) -->
<svg id="svg5615" xmlns:rdf="http://www.w3.org/1999/02/22-rdf-syntax-ns#" xmlns="http://www.w3.org/2000/svg" height="16" width="16" version="1.0" xmlns:cc="http://web.resource.org/cc/" xmlns:xlink="http://www.w3.org/1999/xlink" xmlns:dc="http://purl.org/dc/elements/1.1/">
 <defs id="defs5617">
  <linearGradient id="linearGradient5917" y2="30.653" gradientUnits="userSpaceOnUse" x2="10.455" gradientTransform="matrix(.625 0 0 .62061 .18750 -4.5425)" y1="21.968" x1="10.455">
   <stop id="stop5913" style="stop-color:#fcaf3e" offset="0"/>
   <stop id="stop5915" style="stop-color:#f57900" offset="1"/>
  </linearGradient>
  <linearGradient id="linearGradient6789" y2="33.642" gradientUnits="userSpaceOnUse" x2="13.387" gradientTransform="matrix(.34911 0 0 .34911 -.36904 -.57592)" y1="5.6607" x1="9.2953">
   <stop id="stop5914" style="stop-color:#ebebe8" offset="0"/>
   <stop id="stop5916" style="stop-color:#eeeeec" offset="1"/>
  </linearGradient>
 </defs>
 <metadata id="metadata5620">
  <rdf:RDF>
   <cc:Work rdf:about="">
    <dc:format>image/svg+xml</dc:format>
    <dc:type rdf:resource="http://purl.org/dc/dcmitype/StillImage"/>
   </cc:Work>
  </rdf:RDF>
 </metadata>
 <g id="layer1">
  <path id="path6761" style="stroke-width:1px;fill-rule:evenodd;color:#000000;stroke:#888a85;stroke-linecap:round;fill:url(#linearGradient6789)" d="m8 0.5c-4.1348 0-7.5 3.3652-7.5 7.5 0 4.135 3.3652 7.469 7.5 7.469 4.135 0 7.469-3.334 7.469-7.469 0-4.1348-3.334-7.5-7.469-7.5zm0 5c1.38 0 2.5 1.12 2.5 2.5s-1.12 2.5-2.5 2.5-2.5-1.12-2.5-2.5 1.12-2.5 2.5-2.5z"/>
  <path id="path6763" style="fill-rule:evenodd;color:#000000;fill-opacity:.10811" d="m8 4c-2.2028 0-4 1.7972-4 4 0 2.203 1.7972 3.969 4 3.969 2.203 0 3.969-1.766 3.969-3.969 0-2.2028-1.766-4-3.969-4zm0 0.9688c1.676-0.0001 3.031 1.3552 3.031 3.0312s-1.355 3.031-3.031 3.031-3.0312-1.355-3.0312-3.031c-0.0001-1.676 1.3552-3.0312 3.0312-3.0312z"/>
  <path id="path6765" style="stroke-width:3.2962px;stroke-opacity:.56757;color:#000000;stroke:#fff;stroke-linecap:round;fill:none" d="m45.402 24.538a21.456 21.456 0 1 1 -42.913 0 21.456 21.456 0 1 1 42.913 0z" transform="matrix(.30338 0 0 .30338 .72606 .54628)"/>
  <path id="path6771" style="fill-opacity:.28829;fill:#fff;fill-rule:evenodd" d="m14.72 6.0599c-0.385-1.2665-1.163-2.4146-2.142-3.2559-0.721 0.8617-1.008 1.8024-2.382 3.4136 0.225 0.1825 0.398 0.4255 0.48 0.7106l4.044-0.8683zm-8.6625 4.1881c-0.1796-0.163-0.3203-0.3663-0.3999-0.6009l-4.1179 0.5749c0.3998 1.212 1.1296 2.273 2.0795 3.082 0.8014-0.933 0.9627-1.332 2.4383-3.056z"/>
  <path id="path6773" style="fill-opacity:.040541;fill-rule:evenodd" d="m5.8945 1.1761c-1.3823 0.41-2.5992 1.1924-3.5175 2.2345 0.9404 0.7674 2.2753 1.5542 4.0339 3.0161 0.1993-0.2388 0.4644-0.4227 0.7756-0.5108l-1.292-4.7398zm3.5584 8.3183c-0.1097 0.5866-0.3994 0.3409-0.6555 0.4257l1.6416 5.2059c1.323-0.426 2.481-1.203 3.365-2.213-1.019-0.853-2.469-1.848-4.3511-3.4186z"/>
  <path id="path6775" style="stroke-opacity:.36486;stroke:#fff;stroke-width:1px;fill:none" d="m5.5947 9.7688l-3.2493 1.7312m9.2116-7.9326l-2.1513 2.7575"/>
  <path id="rect4933" style="stroke:#ce5c00;fill:url(#linearGradient5917)" d="m4.5308 6.7981v1.7279h-3.0933c-0.51938 0-0.9375 0.4152-0.9375 0.9309v2.1581c0 0.516 0.41812 0.931 0.9375 0.931h3.0933v1.605l3.9845-3.709-3.9845-3.6439z"/>
  <path id="path5909" style="stroke:#fff;stroke-opacity:.31532;fill:none" d="m5.5346 8.9503l0.0188 0.5521h-3.6326c-0.5193 0-0.4065 0.4152-0.4065 0.9306v0.192c0 0.516-0.0776 0.931 0.4418 0.931h3.5973l-0.0188 0.44 1.5649-1.562-1.5649-1.4837z"/>
 </g>
</svg>
