<?xml version="1.0" encoding="UTF-8" standalone="no"?>
<!-- Created with Inkscape (http://www.inkscape.org/) -->
<svg id="svg5615" xmlns:rdf="http://www.w3.org/1999/02/22-rdf-syntax-ns#" xmlns="http://www.w3.org/2000/svg" height="48" width="48" version="1.0" xmlns:cc="http://web.resource.org/cc/" xmlns:xlink="http://www.w3.org/1999/xlink" xmlns:dc="http://purl.org/dc/elements/1.1/">
 <defs id="defs5617">
  <radialGradient id="radialGradient6710" gradientUnits="userSpaceOnUse" cy="24.538" cx="23.946" r="21.456">
   <stop id="stop6567" offset="0"/>
   <stop id="stop6569" style="stop-opacity:0" offset="1"/>
  </radialGradient>
  <linearGradient id="linearGradient6712" y2="33.642" gradientUnits="userSpaceOnUse" x2="13.387" gradientTransform="matrix(1.002 0 0 1.002 .00563 -.58818)" y1="5.6607" x1="9.2953">
   <stop id="stop5914" style="stop-color:#ebebe8" offset="0"/>
   <stop id="stop5916" style="stop-color:#eeeeec" offset="1"/>
  </linearGradient>
  <linearGradient id="linearGradient5917" y2="30.653" gradientUnits="userSpaceOnUse" x2="10.455" y1="21.968" x1="10.455">
   <stop id="stop5913" style="stop-color:#fcaf3e" offset="0"/>
   <stop id="stop5915" style="stop-color:#f57900" offset="1"/>
  </linearGradient>
 </defs>
 <metadata id="metadata5620">
  <rdf:RDF>
   <cc:Work rdf:about="">
    <dc:format>image/svg+xml</dc:format>
    <dc:type rdf:resource="http://purl.org/dc/dcmitype/StillImage"/>
   </cc:Work>
  </rdf:RDF>
 </metadata>
 <g id="layer1">
  <path id="path6680" style="opacity:.38865;fill-rule:evenodd;color:#000000;fill:url(#radialGradient6710)" d="m45.402 24.538a21.456 21.456 0 1 1 -42.913 0 21.456 21.456 0 1 1 42.913 0z" transform="matrix(1.0253 0 0 .46606 -.55238 26.564)"/>
  <path id="path6682" style="stroke-width:1px;fill-rule:evenodd;color:#000000;stroke:#888a85;stroke-linecap:round;fill:url(#linearGradient6712)" d="m24 2.5c-11.868 0-21.5 9.632-21.5 21.5s9.632 21.5 21.5 21.5 21.5-9.632 21.5-21.5-9.632-21.5-21.5-21.5zm0 17c2.484 0 4.5 2.016 4.5 4.5s-2.016 4.5-4.5 4.5-4.5-2.016-4.5-4.5 2.016-4.5 4.5-4.5z"/>
  <path id="path6684" style="fill-rule:evenodd;color:#000000;fill-opacity:.10811" d="m24 15c-4.968 0-9 4.032-9 9s4.032 9 9 9 9-4.032 9-9-4.032-9-9-9zm0 3.938c2.799 0 5.062 2.263 5.062 5.062s-2.263 5.062-5.062 5.062c-2.799 0.001-5.062-2.263-5.062-5.062s2.263-5.062 5.062-5.062z"/>
  <path id="path6686" style="stroke-width:1.0467px;stroke-opacity:.56757;color:#000000;stroke:#fff;stroke-linecap:round;fill:none" d="m45.402 24.538a21.456 21.456 0 1 1 -42.913 0 21.456 21.456 0 1 1 42.913 0z" transform="matrix(.95542 0 0 .95542 1.1216 .55546)"/>
  <path id="path6688" style="stroke-width:3.9012px;stroke-opacity:.42342;color:#000000;stroke:#fff;stroke-linecap:round;fill:none" d="m45.402 24.538a21.456 21.456 0 1 1 -42.913 0 21.456 21.456 0 1 1 42.913 0z" transform="matrix(.25633 0 0 .25633 17.862 17.71)"/>
  <path id="path6692" style="fill-opacity:.28829;fill:#fff;fill-rule:evenodd" d="m44.066 18c-1.172-3.848-3.537-7.337-6.516-9.8936-2.193 2.6186-5.988 7.3006-10.166 12.197 0.682 0.555 1.208 1.293 1.46 2.16l15.222-4.463zm-23.353 9.757c-0.546-0.495-0.974-1.112-1.216-1.825l-15.527 4.716c1.2165 3.684 3.4366 6.907 6.326 9.368 2.438-2.837 5.928-7.019 10.417-12.259z"/>
  <path id="path6694" style="fill-opacity:.040541;fill-rule:evenodd" d="m17.793 4.1733c-3.848 1.172-7.236 3.4084-9.793 6.3867 2.618 2.194 7.725 6.527 12.622 10.706 0.554-0.683 1.293-1.208 2.159-1.46l-4.988-15.633zm9.428 22.75c-0.495 0.546-1.111 0.974-1.824 1.216l5.048 15.906c3.684-1.216 6.907-3.436 9.367-6.326-2.836-2.438-7.351-6.308-12.591-10.796z"/>
  <path id="path6696" d="m19.087 27.974l-12.042 7.162m30.273-26.1l-8.947 10.763" style="stroke-opacity:.36486;stroke:#fff;stroke-width:1px;fill:none"/>
  <path id="rect4933" style="stroke:#ce5c00;fill:url(#linearGradient5917)" d="m8.5 17.5v3h-6.5c-0.831 0-1.5 0.669-1.5 1.5v4c0 0.831 0.669 1.5 1.5 1.5h6.5v3.031l8-6.5-8-6.531z"/>
  <path id="path5909" style="stroke:#fff;stroke-opacity:.31532;fill:none" d="m9.5 19.669v1.831h-7.3495c-0.831 0-0.6505 0.669-0.6505 1.5v2c0 0.831-0.1241 1.5 0.7069 1.5h7.2931v1.904l5.407-4.373-5.407-4.362z"/>
 </g>
</svg>
