<?xml version="1.0" encoding="UTF-8" standalone="no"?>
<!-- Created with Inkscape (http://www.inkscape.org/) -->
<svg id="svg5498" xmlns:rdf="http://www.w3.org/1999/02/22-rdf-syntax-ns#" xmlns="http://www.w3.org/2000/svg" height="48" width="48" version="1.0" xmlns:cc="http://web.resource.org/cc/" xmlns:xlink="http://www.w3.org/1999/xlink" xmlns:dc="http://purl.org/dc/elements/1.1/">
 <defs id="defs5500">
  <linearGradient id="linearGradient2098" y2="39.999" gradientUnits="userSpaceOnUse" x2="25.058" y1="47.028" x1="25.058">
   <stop id="stop3704" style="stop-opacity:0" offset="0"/>
   <stop id="stop3710" offset=".5"/>
   <stop id="stop3706" style="stop-opacity:0" offset="1"/>
  </linearGradient>
  <radialGradient id="radialGradient2096" xlink:href="#linearGradient3688" gradientUnits="userSpaceOnUse" cy="43.5" cx="4.993" gradientTransform="matrix(2.0038 0 0 1.4 -20.012 -104.4)" r="2.5"/>
  <linearGradient id="linearGradient3688">
   <stop id="stop3690" offset="0"/>
   <stop id="stop3692" style="stop-opacity:0" offset="1"/>
  </linearGradient>
  <radialGradient id="radialGradient2094" xlink:href="#linearGradient3688" gradientUnits="userSpaceOnUse" cy="43.5" cx="4.993" gradientTransform="matrix(2.0038 0 0 1.4 27.988 -17.4)" r="2.5"/>
  <radialGradient id="radialGradient6713" gradientUnits="userSpaceOnUse" cy="11.004" cx="12.388" gradientTransform="matrix(8.6416 -.0012540 0 10.204 -74.286 -78.533)" r="8">
   <stop id="stop260" style="stop-color:#fafafa" offset="0"/>
   <stop id="stop261" style="stop-color:#bbb" offset="1"/>
  </radialGradient>
  <linearGradient id="linearGradient11805" y2="13.631" gradientUnits="userSpaceOnUse" x2="14.009" gradientTransform="matrix(2.6923 0 0 2.8462 2.4615 1.2308)" y1="3.9005" x1="3.0272">
   <stop id="stop15664" style="stop-color:#fff" offset="0"/>
   <stop id="stop15666" style="stop-color:#f8f8f8" offset="1"/>
  </linearGradient>
  <radialGradient id="radialGradient5622" gradientUnits="userSpaceOnUse" cy="9.3411" cx="38.659" r="8.3417">
   <stop id="stop2380" style="stop-color:#fff" offset="0"/>
   <stop id="stop4146" style="stop-color:#fefede;stop-opacity:.91837" offset=".25"/>
   <stop id="stop2386" style="stop-color:#f5f328" offset=".5"/>
   <stop id="stop2382" style="stop-color:#f5f32d;stop-opacity:.12234" offset="1"/>
  </radialGradient>
 </defs>
 <metadata id="metadata5503">
  <rdf:RDF>
   <cc:Work rdf:about="">
    <dc:format>image/svg+xml</dc:format>
    <dc:type rdf:resource="http://purl.org/dc/dcmitype/StillImage"/>
   </cc:Work>
  </rdf:RDF>
 </metadata>
 <g id="layer1">
  <g id="g2043" style="opacity:.60870" transform="matrix(1.15 0 0 1 -3.6 -1)">
   <g id="g2036">
    <g id="g3712" style="opacity:.4" transform="matrix(1.0526 0 0 1.2857 -1.2632 -13.429)">
     <rect id="rect2801" style="opacity:1;fill:url(#radialGradient2094)" height="7" width="5" y="40" x="38"/>
     <rect id="rect3696" style="opacity:1;fill:url(#radialGradient2096)" transform="scale(-1)" height="7" width="5" y="-47" x="-10"/>
     <rect id="rect3700" style="opacity:1;fill:url(#linearGradient2098)" height="7" width="28" y="40" x="10"/>
    </g>
   </g>
  </g>
  <rect id="rect5506" style="stroke-linejoin:round;stroke:#a0a0a0;fill:url(#radialGradient6713)" rx="1.2572" ry="1.2047" height="39" width="37" y="4.5" x="5.5"/>
  <rect id="rect11851" style="opacity:.25;fill:#555753" rx="0" ry="0" height="10" width="38" y="14" x="5"/>
  <path id="rect5525" style="opacity:.2;fill:#555753" d="m5 34h38v7.729c-0.06 1.211 0.06 2.228-2.458 2.271h-33.3c-1.3147 0-2.242-0.091-2.242-2.207v-7.793z"/>
  <path id="path6726" style="stroke:#4e9a06;stroke-linecap:round;stroke-width:.54849;fill:#73d216" d="m7.0718 10.601a2.1183 1.7042 0 1 1 -4.2367 0 2.1183 1.7042 0 1 1 4.2367 0z" transform="matrix(1.8883 0 0 1.7603 5.1466 13.84)"/>
  <path id="path6730" style="stroke:#4e9a06;stroke-width:1px;fill:none" d="m18.5 32.138v-17.418h18v17.299"/>
  <rect id="rect6732" style="stroke:#4e9a06;stroke-linecap:round;fill:#73d216" height="6" width="18" y="12.5" x="18.5"/>
  <path id="path6734" style="stroke:#4e9a06;stroke-linecap:round;stroke-width:.54849;fill:#73d216" d="m7.0718 10.601a2.1183 1.7042 0 1 1 -4.2367 0 2.1183 1.7042 0 1 1 4.2367 0z" transform="matrix(1.8883 0 0 1.7603 23.147 13.84)"/>
  <rect id="rect8485" style="opacity:.8;stroke-linejoin:round;stroke:url(#linearGradient11805);fill:none" rx=".19109" ry=".19109" height="37" width="35" y="5.5" x="6.5"/>
  <rect id="rect4942" style="opacity:.25;stroke:#fff;stroke-linecap:round;fill:none" height="4" width="16" y="13.5" x="19.5"/>
  <path id="path5929" style="opacity:.25;fill:#fff" d="m8.5312 20.297a0.32812 0.14062 0 1 1 -0.6562 0 0.32812 0.14062 0 1 1 0.6562 0z" transform="matrix(6.0952 0 0 10.667 -37 -185)"/>
  <path id="path5931" style="opacity:.25;fill:#fff" d="m8.5312 20.297a0.32812 0.14062 0 1 1 -0.6562 0 0.32812 0.14062 0 1 1 0.6562 0z" transform="matrix(6.0952 0 0 10.667 -19 -185)"/>
  <path id="path4943" style="opacity:.25;stroke:#fff;stroke-linecap:round;stroke-width:.77569;fill:none" d="m7.0718 10.601a2.1183 1.7042 0 1 1 -4.2367 0 2.1183 1.7042 0 1 1 4.2367 0z" transform="matrix(1.4162 0 0 1.1735 25.485 20.06)"/>
  <path id="path5914" style="opacity:.25;stroke:#fff;stroke-linecap:round;stroke-width:.77569;fill:none" d="m7.0718 10.601a2.1183 1.7042 0 1 1 -4.2367 0 2.1183 1.7042 0 1 1 4.2367 0z" transform="matrix(1.4162 0 0 1.1735 7.485 20.06)"/>
  <g id="g2029" transform="matrix(.99045 0 0 .99045 -2.5113 .31233)">
   <path id="path2388" style="fill:url(#radialGradient5622);fill-rule:evenodd" d="m47.001 9.3411a8.3417 8.3417 0 1 1 -16.684 0 8.3417 8.3417 0 1 1 16.684 0z" transform="matrix(1.1498 0 0 1.1498 -6.0739 .55468)"/>
   <path id="path1345" style="color:#000000;fill-rule:evenodd;fill:#fff" d="m44.52 15.503c-0.507 0.878-4.595-0.161-5.521 0.252-0.927 0.412-2.89 4.145-3.882 3.934s-1.267-4.419-1.946-5.173c-0.678-0.754-4.835-1.467-4.941-2.476s3.812-2.5704 4.319-3.4488c0.507-0.8785-0.099-5.0522 0.827-5.4648 0.927-0.4126 3.623 2.8308 4.615 3.0417s4.774-1.6555 5.453-0.9017-1.573 4.3201-1.467 5.3286c0.106 1.009 3.05 4.029 2.543 4.908z" transform="matrix(.61137 .27813 -.27169 .62585 18.837 -5.497)"/>
  </g>
 </g>
</svg>
